<svg xmlns="http://www.w3.org/2000/svg" width="1800" height="455" viewBox="0 0 1800 455" role="img" aria-label="County 10 Concrete logo">
<title>County 10 Concrete</title>
<g fill-rule="nonzero">
<path d="M600 10Q377 -10 230 -10Q132 -10 86.0 36.0Q40 82 40 180V500Q40 605 87.5 652.5Q135 700 240 700H600V560H280Q220 560 220 500V180Q220 157 233.5 143.5Q247 130 268.0 130.0Q289 130 314.0 130.5Q339 131 366.0 132.0Q393 133 420.5 134.0Q448 135 491.5 138.0Q535 141 600 145Z" transform="translate(264.795 232.000) scale(0.23800000 -0.23800000)" fill="#171A1F"/>
<path d="M510 510Q510 570 450 570H280Q220 570 220 510V190Q220 130 280 130H450Q510 130 510 190ZM690 190Q690 85 642.5 37.5Q595 -10 490 -10H240Q135 -10 87.5 37.5Q40 85 40 190V510Q40 615 87.5 662.5Q135 710 240 710H490Q595 710 642.5 662.5Q690 615 690 510Z" transform="translate(410.355 232.000) scale(0.23800000 -0.23800000)" fill="#171A1F"/>
<path d="M510 700H690V190Q690 85 642.5 37.5Q595 -10 490 -10H260Q155 -10 107.5 37.5Q60 85 60 190V700H240V190Q240 130 300 130H450Q510 130 510 190Z" transform="translate(582.095 232.000) scale(0.23800000 -0.23800000)" fill="#171A1F"/>
<path d="M670 0H480L240 420V0H60V700H250L490 280V700H670Z" transform="translate(758.595 232.000) scale(0.23800000 -0.23800000)" fill="#171A1F"/>
<path d="M400 0H220V560H10V700H610V560H400Z" transform="translate(930.335 232.000) scale(0.23800000 -0.23800000)" fill="#171A1F"/>
<path d="M-20 700H170L335 360L500 700H690L425 185V0H245V185Z" transform="translate(1075.895 232.000) scale(0.23800000 -0.23800000)" fill="#171A1F"/>
<path d="M165 0V545L50 505L0 620L185 700H345V0Z" transform="translate(1279.355 232.000) scale(0.23800000 -0.23800000)" fill="#171A1F"/>
<path d="M450 510Q450 570 390 570H280Q220 570 220 510V190Q220 130 280 130H390Q450 130 450 190ZM630 190Q630 85 582.5 37.5Q535 -10 430 -10H240Q135 -10 87.5 37.5Q40 85 40 190V510Q40 615 87.5 662.5Q135 710 240 710H430Q535 710 582.5 662.5Q630 615 630 510Z" transform="translate(1375.745 232.000) scale(0.23800000 -0.23800000)" fill="#171A1F"/>
<rect x="270.80" y="330.00" width="183.20" height="12" fill="#171A1F"/>
<rect x="1346.00" y="330.00" width="183.20" height="12" fill="#171A1F"/>
<path d="M329 0H220Q141 0 98.0 42.0Q55 84 55 163V480Q55 559 98.0 601.0Q141 643 220 643H329Q407 643 450.5 600.5Q494 558 494 480V433Q494 411 472 411H388Q367 411 367 433V474Q367 506 353.5 519.5Q340 533 308 533H240Q209 533 195.5 519.5Q182 506 182 474V169Q182 137 195.5 123.5Q209 110 240 110H308Q340 110 353.5 123.5Q367 137 367 169V210Q367 232 388 232H472Q494 232 494 210V163Q494 85 450.5 42.5Q407 0 329 0Z" transform="translate(510.000 365.000) scale(0.07800000 -0.07800000)" fill="#171A1F"/>
<path d="M240 110H311Q343 110 356.5 123.5Q370 137 370 169V474Q370 506 356.5 519.5Q343 533 311 533H240Q208 533 195.0 519.5Q182 506 182 474V169Q182 137 195.0 123.5Q208 110 240 110ZM332 0H220Q141 0 98.0 42.0Q55 84 55 163V480Q55 559 98.0 601.0Q141 643 220 643H332Q411 643 454.0 601.0Q497 559 497 480V163Q497 84 454.0 42.0Q411 0 332 0Z" transform="translate(617.027 365.000) scale(0.07800000 -0.07800000)" fill="#171A1F"/>
<path d="M169 0H86Q65 0 65 21V622Q65 643 86 643H161Q182 643 189 629L391 250H395V622Q395 643 416 643H499Q520 643 520 622V21Q520 0 499 0H426Q404 0 394 20L194 392H190V21Q190 0 169 0Z" transform="translate(725.146 365.000) scale(0.07800000 -0.07800000)" fill="#171A1F"/>
<path d="M329 0H220Q141 0 98.0 42.0Q55 84 55 163V480Q55 559 98.0 601.0Q141 643 220 643H329Q407 643 450.5 600.5Q494 558 494 480V433Q494 411 472 411H388Q367 411 367 433V474Q367 506 353.5 519.5Q340 533 308 533H240Q209 533 195.5 519.5Q182 506 182 474V169Q182 137 195.5 123.5Q209 110 240 110H308Q340 110 353.5 123.5Q367 137 367 169V210Q367 232 388 232H472Q494 232 494 210V163Q494 85 450.5 42.5Q407 0 329 0Z" transform="translate(835.839 365.000) scale(0.07800000 -0.07800000)" fill="#171A1F"/>
<path d="M171 0H86Q65 0 65 21V622Q65 643 86 643H324Q402 643 446.0 600.0Q490 557 490 479V401Q490 288 401 251V247L508 24Q517 0 491 0H410Q392 0 384.0 4.0Q376 8 371 21L271 237H204Q192 237 192 226V21Q192 0 171 0ZM203 339H301Q333 339 348.0 352.5Q363 366 363 396V474Q363 505 348.0 519.0Q333 533 301 533H203Q192 533 192 522V350Q192 339 203 339Z" transform="translate(942.867 365.000) scale(0.07800000 -0.07800000)" fill="#171A1F"/>
<path d="M413 0H86Q65 0 65 21V622Q65 643 86 643H413Q433 643 433 622V554Q433 533 413 533H204Q192 533 192 522V392Q192 381 204 381H375Q396 381 396 360V292Q396 271 375 271H204Q192 271 192 260V121Q192 110 204 110H413Q433 110 433 89V21Q433 0 413 0Z" transform="translate(1050.596 365.000) scale(0.07800000 -0.07800000)" fill="#171A1F"/>
<path d="M264 0H180Q158 0 158 21V522Q158 533 147 533H33Q12 533 12 554V622Q12 643 33 643H411Q432 643 432 622V554Q432 533 411 533H297Q285 533 285 522V21Q285 0 264 0Z" transform="translate(1153.021 365.000) scale(0.07800000 -0.07800000)" fill="#171A1F"/>
<path d="M413 0H86Q65 0 65 21V622Q65 643 86 643H413Q433 643 433 622V554Q433 533 413 533H204Q192 533 192 522V392Q192 381 204 381H375Q396 381 396 360V292Q396 271 375 271H204Q192 271 192 260V121Q192 110 204 110H413Q433 110 433 89V21Q433 0 413 0Z" transform="translate(1252.638 365.000) scale(0.07800000 -0.07800000)" fill="#171A1F"/>
</g>
</svg>
